<svg xmlns="http://www.w3.org/2000/svg" viewBox="0 0 690.88 318.98"><defs><style>.cls-1{font-size:200px;stroke:#312783;stroke-miterlimit:10;font-family:Leelawadee;}.cls-1,.cls-6{fill:#fff;}.cls-2{letter-spacing:-0.14em;}.cls-3{letter-spacing:-0.15em;}.cls-4{letter-spacing:-0.14em;}.cls-5{font-size:100px;}.cls-7{fill:#e30613;}</style></defs><g id="Calque_2" data-name="Calque 2"><g id="Calque_1-2" data-name="Calque 1"><text class="cls-1" transform="translate(2.07 174.75)"><tspan class="cls-2">S<tspan class="cls-3" x="78.65" y="0">A</tspan><tspan class="cls-4" x="177.42" y="0">ORI </tspan></tspan><tspan class="cls-5"><tspan x="-1.57" y="120">Consulting</tspan></tspan></text><path class="cls-6" d="M629.56,76.27c31.2,10.58,46.39,93.79,14,154-16.87,31.36-54.45,71-85,63-38.51-10.06-59.53-94.11-32-147,14.79-28.41,42.31-45.41,53-52C600.94,81.07,616.11,71.7,629.56,76.27Z"/><path class="cls-7" d="M578.25,184.31c19.15-17.69,37.45-38.25,44.48-63.76,5.21-16.18,4.89-30.21-6.23-43.77-6.19-8-14.47-11.93-20.2-21.15l.52-.86c11,.89,18.93,9.22,25.69,17.17,14.27,18,12.69,35.14,4.89,55.42-9,23.7-28.35,43.26-48.53,57.73l-.62-.78Z"/><path class="cls-7" d="M690.74,8.75c1,4.17-3.94,8.59-9.76,13.66-23.39,20.36-62.8,32.72-73.85,19.24-3.84-4.69-3-10.95-2.81-12.19C606.36,14.65,627.67,7.2,634,5,658.24-3.49,688.47-.45,690.74,8.75Z"/><path class="cls-7" d="M532.22,34.3c1.23-2.07,4.94-1.89,9.26-1.63,17.33,1,37.93,11.56,37,21.29-.3,3.37-3.1,5.54-3.66,6-6.62,5.11-18.06-.27-21.49-1.88C540.4,51.94,529.51,38.86,532.22,34.3Z"/></g></g></svg>