<svg xmlns="http://www.w3.org/2000/svg" viewBox="0 0 1577.24 284.04"><defs><style>.cls-1,.cls-2{fill:none;stroke-miterlimit:10;stroke-width:7.84px;}.cls-1{stroke:#fff;}.cls-2{stroke:#e30613;}.cls-3{font-size:200px;fill:#fff;font-family:Leelawadee;}</style></defs><g id="Calque_2" data-name="Calque 2"><g id="Calque_1-2" data-name="Calque 1"><path class="cls-1" d="M1034.16,64.91c9.29,2.92,40.35,12.66,55.48-2.71,1.26-1.28,7.65-7.78,7.25-16.51-1.16-25.11-57.38-44.78-102-41.39-11.11.85-20.65,1.68-23.06,7.38C966.56,24.27,998.9,53.85,1034.16,64.91Z"/><path class="cls-2" d="M1491.38,87.82c-9.19,3.21-39.93,14-42.86,35.32-.25,1.79-1.49,10.81,4,17.57,15.93,19.45,72.77,1.63,106.49-27.74,8.41-7.31,15.55-13.69,14.08-19.69C1569.86,80,1526.26,75.62,1491.38,87.82Z"/><text class="cls-3" transform="translate(0 236.57)">Saori Consulting</text></g></g></svg>