<svg xmlns="http://www.w3.org/2000/svg" viewBox="0 0 923.35 305.06"><defs><style>.cls-1{font-size:200px;font-family:Leelawadee-Bold, Leelawadee;font-weight:700;letter-spacing:-0.09em;}.cls-1,.cls-5{fill:#283380;}.cls-2{letter-spacing:-0.11em;}.cls-3{letter-spacing:-0.09em;}.cls-4{font-size:130px;letter-spacing:0.04em;}.cls-6{fill:#e30613;}</style></defs><g id="Calque_2" data-name="Calque 2"><g id="Calque_1-2" data-name="Calque 1"><text class="cls-1" transform="translate(59.67 170.02)"><tspan xml:space="preserve"> S</tspan><tspan class="cls-2" x="130.49" y="0">A</tspan><tspan class="cls-3" x="249.89" y="0">ORI </tspan><tspan class="cls-4"><tspan x="-59.67" y="104">Consulting</tspan></tspan></text><path class="cls-5" d="M855.42,86.32c31.2,10.58,46.39,93.79,14,154-16.87,31.36-54.45,71-85,63-38.51-10.06-59.53-94.11-32-147,14.78-28.41,42.31-45.4,53-52C826.8,91.12,842,81.75,855.42,86.32Z"/><path class="cls-6" d="M804.11,194.36c19.17-17.71,37.44-38.23,44.48-63.76,5.21-16.18,4.89-30.21-6.23-43.77-6.19-8-14.47-11.93-20.2-21.15l.52-.86c11,.89,18.93,9.22,25.69,17.17,14.27,18,12.69,35.14,4.89,55.42-9,23.7-28.34,43.26-48.53,57.73l-.62-.78Z"/><path class="cls-6" d="M923.21,21.55c1,4.16-3.94,8.58-9.76,13.65-23.39,20.37-62.8,32.73-73.85,19.24-3.84-4.69-3-10.95-2.81-12.18,2-14.82,23.35-22.27,29.72-24.5C890.71,9.3,920.94,12.35,923.21,21.55Z"/><path class="cls-6" d="M771.33,25.15c1.65-1.43,4.79-.18,8.43,1.3,14.59,5.95,29.21,21,25.62,29.11a8.24,8.24,0,0,1-4.89,4.06c-7.19,2.46-15.45-5.5-17.92-7.88C773.2,42.7,767.67,28.28,771.33,25.15Z"/></g></g></svg>