<svg xmlns="http://www.w3.org/2000/svg" viewBox="0 0 753.82 291.78"><defs><style>.cls-1{font-size:200px;font-family:Leelawadee-Bold, Leelawadee;font-weight:700;}.cls-1,.cls-6{fill:#1f1e3f;}.cls-2{letter-spacing:-0.09em;}.cls-3{letter-spacing:-0.1em;}.cls-4{letter-spacing:-0.09em;}.cls-5{font-size:108px;font-family:Leelawadee;font-weight:400;}.cls-7{fill:#e30613;}</style></defs><g id="Calque_2" data-name="Calque 2"><g id="Calque_1-2" data-name="Calque 1"><text class="cls-1" transform="translate(0 190.15)"><tspan class="cls-2"><tspan xml:space="preserve"> S</tspan><tspan class="cls-3" x="131.29" y="0">A</tspan><tspan class="cls-4" x="251.09" y="0">ORI </tspan></tspan><tspan class="cls-5"><tspan x="41.91" y="76">Consulting</tspan></tspan></text><path class="cls-6" d="M685.89,73.52c31.2,10.59,46.39,93.8,14,154-16.87,31.37-54.45,71-85,63-38.5-10.06-59.53-94.1-32-147,14.79-28.4,42.31-45.4,53-52C657.27,78.33,672.44,69,685.89,73.52Z"/><path class="cls-7" d="M634.58,181.57c19.17-17.71,37.44-38.23,44.49-63.76,5.21-16.18,4.88-30.2-6.24-43.77-6.19-8-14.46-11.93-20.19-21.15l.51-.86c11.05.89,18.94,9.22,25.69,17.17,14.27,18,12.7,35.14,4.89,55.42-9,23.71-28.34,43.26-48.52,57.73l-.63-.78Z"/><path class="cls-7" d="M753.68,8.76c1,4.17-3.93,8.59-9.76,13.66-23.38,20.36-62.8,32.72-73.85,19.24-3.84-4.69-3-10.95-2.81-12.19C669.3,14.66,690.61,7.2,697,5,721.18-3.49,751.42-.44,753.68,8.76Z"/><path class="cls-7" d="M601.8,12.36c1.66-1.42,4.8-.18,8.43,1.3,14.59,5.95,29.22,21,25.62,29.11A8.19,8.19,0,0,1,631,46.83c-7.2,2.47-15.45-5.5-17.92-7.88C603.68,29.91,598.14,15.49,601.8,12.36Z"/></g></g></svg>