<svg xmlns="http://www.w3.org/2000/svg" viewBox="0 0 703.87 339.45"><defs><style>.cls-1{font-size:200px;font-family:Leelawadee-Bold, Leelawadee;font-weight:700;letter-spacing:-0.09em;}.cls-1,.cls-3,.cls-5{fill:#312783;}.cls-2{letter-spacing:-0.1em;}.cls-4{fill:#e30613;}.cls-5{font-size:100px;font-family:Leelawadee;letter-spacing:-0.09em;}</style></defs><g id="Calque_2" data-name="Calque 2"><g id="Calque_1-2" data-name="Calque 1"><text class="cls-1" transform="translate(0 184.7)">S<tspan class="cls-2" x="94.31" y="0">A</tspan><tspan x="214.11" y="0">ORI </tspan></text><path class="cls-3" d="M642.55,76.27c31.2,10.58,46.39,93.79,14,154-16.87,31.36-54.45,71-85,63-38.51-10.06-59.53-94.11-32-147,14.78-28.41,42.31-45.4,53-52C613.93,81.07,629.1,71.7,642.55,76.27Z"/><path class="cls-4" d="M591.24,184.31c19.17-17.71,37.44-38.23,44.48-63.76,5.22-16.18,4.89-30.21-6.23-43.77-6.19-8-14.46-11.93-20.2-21.15l.52-.86c11.05.89,18.94,9.22,25.69,17.17,14.27,18,12.69,35.14,4.89,55.42-9,23.7-28.34,43.26-48.53,57.73l-.62-.78Z"/><path class="cls-4" d="M703.74,8.76c1,4.16-3.94,8.58-9.76,13.65-23.39,20.37-62.8,32.73-73.85,19.24-3.84-4.69-3-10.95-2.81-12.18C619.36,14.65,640.67,7.2,647,5,671.24-3.49,701.47-.44,703.74,8.76Z"/><path class="cls-4" d="M545.21,34.3c1.23-2.07,4.94-1.89,9.26-1.63,17.33,1,37.93,11.56,37.06,21.28-.31,3.38-3.11,5.55-3.66,6-6.63,5.11-18.07-.27-21.49-1.88C553.39,51.94,542.51,38.86,545.21,34.3Z"/><text class="cls-5" transform="translate(119.4 261.94)">Consulting</text></g></g></svg>