<svg xmlns="http://www.w3.org/2000/svg" viewBox="0 0 869.93 551.14"><defs><style>.cls-1,.cls-4{fill:#312783;}.cls-2,.cls-3{fill:none;stroke-width:7.84px;}.cls-2,.cls-5{stroke:#312783;}.cls-2,.cls-3,.cls-5{stroke-miterlimit:10;}.cls-3{stroke:#e30613;}.cls-4{font-size:200px;font-family:Leelawadee;}.cls-5{letter-spacing:-0.14em;}.cls-6{letter-spacing:-0.15em;}.cls-7{letter-spacing:-0.14em;}.cls-8{font-size:100px;}</style></defs><g id="Calque_2" data-name="Calque 2"><g id="Calque_1-2" data-name="Calque 1"><path class="cls-1" d="M591,372.66c-25-7.91-36.69-36.38-41.61-59.88-7.41-38.13-2.3-81.11,23.45-111.5,13.55-16.25,31.1-28.45,49-39.46,12.64-7.66,28.05-18.6,43.53-13.06,15.08,5.89,23.18,22.61,28.14,36.92a164.36,164.36,0,0,1-10,122.41,155.18,155.18,0,0,1-38.25,47C630.38,367,610.7,378,591,372.66Zm2.49-9.55c25.84,5.12,52.09-24.84,66-43.62,24.4-32.39,33.82-74.2,29.15-114.34-2.29-18.34-10.69-52-33.08-52.93-11.67.3-22.1,6.78-32.18,12.25-31.69,17.45-61.09,40-70.42,76.72-7.36,28.64-4.31,59.84,7.35,86.89,6.64,14.66,16.89,30.76,33.14,35Z"/><path class="cls-2" d="M562.41,72.39c9.28,2.91,40.35,12.66,55.47-2.71,1.26-1.29,7.65-7.78,7.25-16.51-1.15-25.11-57.37-44.78-102-41.39-11.11.84-20.65,1.68-23,7.38C494.81,31.75,527.14,61.33,562.41,72.39Z"/><path class="cls-3" d="M724.91,77c-9.19,3.21-39.92,14-42.86,35.32-.24,1.79-1.48,10.81,4.05,17.57,15.93,19.45,72.77,1.62,106.49-27.74,8.4-7.31,15.55-13.69,14.07-19.69C803.4,69.19,759.8,64.8,724.91,77Z"/><path class="cls-1" d="M611.8,259.05c22.78-39.79,39.09-83.42,44.87-129C662,96,661.2,62.36,645.48,31c-3.78-7.56-8.14-14.78-11.93-22.38C632.26,6,631,3.43,629.84.64l.77-.64c10,6.78,16.82,16.89,21.88,27.54,16.34,33,17.1,67.95,10.78,103.57a293.18,293.18,0,0,1-18.39,67.11,320.17,320.17,0,0,1-32.23,61.36l-.85-.53Z"/><text class="cls-4" transform="translate(15.16 196.46)"><tspan class="cls-5">S<tspan class="cls-6" x="78.65" y="0">A</tspan><tspan class="cls-7" x="177.42" y="0">ORI</tspan></tspan><tspan class="cls-8"><tspan x="-15.16" y="120">Consulting</tspan></tspan></text><text/></g></g></svg>