<svg xmlns="http://www.w3.org/2000/svg" viewBox="0 0 690.87 318.98"><defs><style>.cls-1{font-size:200px;stroke:#312783;stroke-miterlimit:10;font-family:Leelawadee;}.cls-1,.cls-6{fill:#312783;}.cls-2{letter-spacing:-0.14em;}.cls-3{letter-spacing:-0.15em;}.cls-4{letter-spacing:-0.14em;}.cls-5{font-size:100px;}.cls-7{fill:#e30613;}</style></defs><g id="Calque_2" data-name="Calque 2"><g id="Calque_1-2" data-name="Calque 1"><text class="cls-1" transform="translate(2.07 174.75)"><tspan class="cls-2">S<tspan class="cls-3" x="78.65" y="0">A</tspan><tspan class="cls-4" x="177.42" y="0">ORI </tspan></tspan><tspan class="cls-5"><tspan x="-1.57" y="120">Consulting</tspan></tspan></text><path class="cls-6" d="M629.56,76.27c31.2,10.58,46.38,93.79,14,154-16.88,31.37-54.46,71-85,63-38.51-10.06-59.53-94.11-32-147,14.78-28.41,42.31-45.4,53-52C600.93,81.07,616.1,71.71,629.56,76.27Z"/><path class="cls-7" d="M578.25,184.31c19.17-17.71,37.44-38.23,44.48-63.76,5.21-16.18,4.89-30.2-6.23-43.77-6.19-8-14.47-11.93-20.2-21.15l.52-.86c11,.89,18.93,9.22,25.69,17.17,14.27,18,12.69,35.14,4.89,55.42-9,23.7-28.34,43.26-48.53,57.73l-.62-.78Z"/><path class="cls-7" d="M690.74,8.76c1,4.16-3.93,8.58-9.76,13.66-23.38,20.36-62.8,32.72-73.84,19.23-3.84-4.69-3-10.94-2.81-12.18,2-14.82,23.35-22.27,29.72-24.5C658.24-3.49,688.48-.44,690.74,8.76Z"/><path class="cls-7" d="M532.22,34.3c1.23-2.07,4.94-1.89,9.26-1.63,17.33,1,37.93,11.57,37,21.28-.3,3.38-3.1,5.55-3.66,6-6.62,5.11-18.06-.27-21.48-1.88C540.4,52,529.51,38.86,532.22,34.3Z"/></g></g></svg>