<svg xmlns="http://www.w3.org/2000/svg" viewBox="0 0 1739.92 413.33"><defs><style>.cls-1,.cls-4{fill:#312783;}.cls-2,.cls-3{fill:none;stroke-width:7.84px;}.cls-2,.cls-4{stroke:#312783;}.cls-2,.cls-3,.cls-4{stroke-miterlimit:10;}.cls-3{stroke:#e30613;}.cls-4{font-size:200px;font-family:Leelawadee;}</style></defs><g id="Calque_2" data-name="Calque 2"><g id="Calque_1-2" data-name="Calque 1"><path class="cls-1" d="M1520.12,411.94c-25-7.92-36.69-36.39-41.61-59.89-7.41-38.13-2.3-81.11,23.45-111.49,13.56-16.26,31.1-28.45,49-39.46,12.65-7.67,28.06-18.61,43.53-13.07,15.08,5.89,23.18,22.61,28.14,36.92a164.38,164.38,0,0,1-10,122.42,155.48,155.48,0,0,1-38.26,47c-14.86,11.94-34.53,22.95-54.26,17.59Zm2.5-9.56c25.83,5.12,52.08-24.84,66-43.62,24.4-32.39,33.83-74.2,29.15-114.34-2.29-18.34-10.68-52-33.07-52.93-11.68.31-22.11,6.79-32.19,12.25-31.69,17.45-61.09,40-70.42,76.73-7.36,28.63-4.31,59.83,7.36,86.88,6.64,14.66,16.88,30.76,33.14,35Z"/><path class="cls-2" d="M1480.61,64.91c9.29,2.92,40.36,12.66,55.48-2.71,1.26-1.28,7.65-7.78,7.25-16.51-1.15-25.11-57.38-44.78-102-41.39-11.11.85-20.65,1.68-23.05,7.38C1413,24.27,1445.35,53.85,1480.61,64.91Z"/><path class="cls-3" d="M1654.06,116.27c-9.19,3.22-39.92,14-42.86,35.33-.25,1.78-1.49,10.8,4,17.56,15.92,19.45,72.76,1.63,106.48-27.73,8.41-7.32,15.55-13.69,14.08-19.7C1732.54,108.47,1688.94,104.07,1654.06,116.27Z"/><path class="cls-1" d="M1540.94,298.33c22.78-39.79,39.09-83.42,44.87-129,5.35-34.06,4.53-67.73-11.19-99.11-3.78-7.55-8.13-14.78-11.92-22.38-1.29-2.57-2.58-5.17-3.72-8l.77-.64c10,6.78,16.82,16.89,21.88,27.55,16.35,33,17.1,67.94,10.79,103.57a294.26,294.26,0,0,1-18.39,67.1,320.86,320.86,0,0,1-32.24,61.37l-.85-.53Z"/><text class="cls-4" transform="translate(0.5 265.03)">Saori Consulting</text></g></g></svg>