<svg xmlns="http://www.w3.org/2000/svg" viewBox="0 0 707.41 306.94"><defs><style>.cls-1{font-size:200px;stroke:#312783;stroke-miterlimit:10;font-family:Leelawadee-Bold, Leelawadee;font-weight:700;letter-spacing:-0.09em;}.cls-1,.cls-3,.cls-5{fill:#fff;}.cls-2{letter-spacing:-0.1em;}.cls-4{fill:#e30613;}.cls-5{font-size:100px;font-family:Leelawadee;letter-spacing:-0.09em;}</style></defs><g id="Calque_2" data-name="Calque 2"><g id="Calque_1-2" data-name="Calque 1"><text class="cls-1" transform="translate(0.5 184.69)">S<tspan class="cls-2" x="94.31" y="0">A</tspan><tspan x="214.11" y="0">ORI </tspan></text><path class="cls-3" d="M646.09,76.27c31.2,10.58,46.39,93.79,14,154-16.87,31.36-54.45,71-85,63-38.51-10.06-59.53-94.11-32-147,14.79-28.41,42.31-45.41,53-52C617.47,81.07,632.64,71.7,646.09,76.27Z"/><path class="cls-4" d="M594.78,184.31c19.15-17.69,37.45-38.25,44.48-63.76,5.22-16.18,4.89-30.21-6.23-43.77-6.19-8-14.46-11.93-20.2-21.15l.52-.86c11,.89,18.94,9.22,25.69,17.17,14.27,18,12.69,35.14,4.89,55.42-9,23.7-28.34,43.26-48.52,57.73l-.63-.78Z"/><path class="cls-4" d="M707.28,8.75c1,4.17-3.94,8.59-9.76,13.66-23.39,20.36-62.8,32.72-73.85,19.24-3.84-4.69-3-10.95-2.81-12.19C622.9,14.65,644.21,7.2,650.58,5,674.78-3.49,705-.45,707.28,8.75Z"/><path class="cls-4" d="M548.75,34.3c1.23-2.07,4.94-1.89,9.26-1.63,17.34,1,37.93,11.56,37,21.29-.3,3.37-3.1,5.54-3.65,6-6.63,5.11-18.07-.27-21.49-1.88C556.93,51.94,546.05,38.86,548.75,34.3Z"/><text class="cls-5" transform="translate(120.05 261.93)">Consulting</text></g></g></svg>