<svg xmlns="http://www.w3.org/2000/svg" viewBox="0 0 756.15 300.1"><defs><style>.cls-1{font-size:200px;font-family:Leelawadee-Bold, Leelawadee;font-weight:700;}.cls-1,.cls-6{fill:#fff;}.cls-2{letter-spacing:-0.09em;}.cls-3{letter-spacing:-0.1em;}.cls-4{letter-spacing:-0.09em;}.cls-5{font-size:108px;font-family:Leelawadee;font-weight:400;}.cls-7{fill:#e30613;}</style></defs><g id="Calque_2" data-name="Calque 2"><g id="Calque_1-2" data-name="Calque 1"><text class="cls-1" transform="translate(0 198.47)"><tspan class="cls-2"><tspan xml:space="preserve"> S</tspan><tspan class="cls-3" x="131.29" y="0">A</tspan><tspan class="cls-4" x="251.09" y="0">ORI </tspan></tspan><tspan class="cls-5"><tspan x="41.91" y="76">Consulting</tspan></tspan></text><path class="cls-6" d="M688.23,73.52c31.19,10.58,46.38,93.79,14,154-16.88,31.36-54.46,71-85,63-38.51-10.06-59.53-94.11-32-147,14.78-28.41,42.31-45.4,53-52C659.6,78.32,674.77,69,688.23,73.52Z"/><path class="cls-7" d="M636.92,181.57c19.17-17.71,37.44-38.23,44.48-63.76,5.21-16.18,4.89-30.21-6.23-43.77-6.19-8-14.47-11.93-20.2-21.16l.52-.85c11,.89,18.93,9.22,25.69,17.17,14.27,18,12.69,35.14,4.89,55.42-9,23.7-28.34,43.25-48.53,57.73l-.62-.78Z"/><path class="cls-7" d="M756,8.76c1,4.16-3.93,8.58-9.76,13.66-23.38,20.36-62.8,32.72-73.84,19.23-3.84-4.69-3-10.95-2.81-12.18C671.65,14.65,693,7.2,699.33,5,723.52-3.49,753.76-.44,756,8.76Z"/><path class="cls-7" d="M604.14,12.35c1.65-1.42,4.79-.18,8.43,1.31,14.58,5.95,29.21,21,25.62,29.11a8.24,8.24,0,0,1-4.89,4.06c-7.19,2.46-15.44-5.5-17.91-7.88C606,29.9,600.48,15.48,604.14,12.35Z"/></g></g></svg>